<svg width="154" height="115" viewBox="0 0 154 115" fill="none" xmlns="http://www.w3.org/2000/svg">
<g id="Group">
<g id="Group_2">
<g id="XMLID_299_">
<path id="XMLID_839_" d="M125.535 41.9912C125.535 45.3205 124.188 48.3226 121.994 50.5165C119.819 52.6911 116.798 54.0382 113.469 54.0382V41.9912H125.535Z" fill="white"/>
<path id="XMLID_841_" d="M38.3595 41.9912V54.0382C35.0302 54.0382 32.0281 52.6911 29.8342 50.5165C27.6596 48.3226 26.3125 45.3205 26.3125 41.9912H38.3595Z" fill="white"/>
<path id="XMLID_843_" d="M131.981 29.0202H19.8633L28.1961 9.9875C30.7171 4.21417 36.4135 0.5 42.7064 0.5H109.138C115.431 0.5 121.127 4.23342 123.668 9.9875L131.981 29.0202Z" fill="white"/>
<path id="XMLID_304_" d="M139.121 29.0205H131.981V60.7161C131.981 65.0846 128.44 68.6448 124.053 68.6448H88.0078C88.0078 79.1522 96.5138 87.6583 107.021 87.6583H124.053C128.421 87.6583 131.981 91.1993 131.981 95.587V114.6H139.121C145.683 114.6 151.014 109.27 151.014 102.707V40.8943C151.014 34.332 145.683 29.0205 139.121 29.0205Z" fill="white"/>
<path id="XMLID_845_" d="M63.8383 68.6252C63.8383 73.879 61.7022 78.6324 58.2766 82.0771C54.8319 85.5219 50.0785 87.6388 44.8248 87.6388H27.7935C23.425 87.6388 19.8648 91.1797 19.8648 95.5674V114.581H12.7251C6.16274 114.581 0.832031 109.25 0.832031 102.688V40.894C0.832031 34.3317 6.16274 29.001 12.7251 29.001H19.8648V60.6966C19.8648 65.065 23.4057 68.6252 27.7935 68.6252H63.8383Z" fill="white"/>
<path id="XMLID_840_" d="M107.254 41.9912C107.254 48.6498 101.865 54.0382 95.2066 54.0382H56.66C50.0014 54.0382 44.5938 48.6498 44.5938 41.9912H107.254Z" fill="white"/>
<path id="XMLID_842_" d="M22.0201 6.25391L16.6894 18.3009H0.832031C0.832031 14.9716 2.17914 11.9695 4.37301 9.77564C6.54763 7.60102 9.569 6.25391 12.8983 6.25391H22.0201Z" fill="white"/>
<path id="XMLID_844_" d="M153.172 18.3205H137.315L131.984 6.27344H141.106C144.436 6.27344 147.438 7.62055 149.632 9.79517C151.825 11.9698 153.172 14.9912 153.172 18.3205Z" fill="white"/>
</g>
</g>
</g>
</svg>
