<svg width="203" height="99" viewBox="0 0 203 99" fill="none" xmlns="http://www.w3.org/2000/svg">
<g id="Group">
<g id="XMLID_677_">
<g id="XMLID_697_">
<path id="XMLID_705_" d="M120.65 22.079C121.59 21.1397 122.173 19.835 122.173 18.3999H116.969V23.6011C118.413 23.6011 119.71 23.0184 120.65 22.079Z" fill="#007BA7"/>
<path id="XMLID_704_" d="M84.5677 18.4087V23.6099C83.1317 23.6099 81.8349 23.0272 80.8863 22.0878C79.9464 21.1485 79.3633 19.8438 79.3633 18.4087H84.5677Z" fill="#007BA7"/>
<path id="XMLID_703_" d="M76.5781 12.8073H124.958L121.373 4.59662C120.285 2.10907 117.822 0.5 115.107 0.5H86.4387C83.7233 0.5 81.2691 2.10907 80.1725 4.59662L76.5781 12.8073Z" fill="#007BA7"/>
<path id="XMLID_702_" d="M128.038 12.8074H124.957V26.4715C124.957 28.3589 123.425 29.8897 121.537 29.8897H105.984C105.984 34.4212 109.657 38.0916 114.191 38.0916H121.537C123.425 38.0916 124.957 39.6224 124.957 41.5098V49.7118H128.038C130.866 49.7118 133.164 47.4156 133.164 44.5888V17.9303C133.164 15.0949 130.866 12.8074 128.038 12.8074Z" fill="white"/>
<path id="XMLID_701_" d="M73.5059 12.8074H76.5868V26.4715C76.5868 28.3589 78.1185 29.8897 80.0071 29.8897H95.5595C95.5595 34.4212 91.8868 38.0916 87.3525 38.0916H79.9984C78.1098 38.0916 76.5781 39.6224 76.5781 41.5098V49.7118H73.4972C70.6687 49.7118 68.3711 47.4156 68.3711 44.5888V17.9303C68.3711 15.0949 70.6687 12.8074 73.5059 12.8074Z" fill="white"/>
<path id="XMLID_700_" d="M114.279 18.4087C114.279 21.2789 111.946 23.6099 109.074 23.6099H92.4427C89.5707 23.6099 87.2383 21.2789 87.2383 18.4087H114.279Z" fill="#007BA7"/>
<path id="XMLID_699_" d="M77.5093 2.99634L75.2117 8.19757H68.3711C68.3711 6.76244 68.9542 5.46649 69.8941 4.51844C70.8341 3.57908 72.1308 2.99634 73.5668 2.99634H77.5093Z" fill="#007BA7"/>
<path id="XMLID_698_" d="M134.098 8.18878C134.098 6.75366 133.515 5.4577 132.575 4.50965C131.635 3.5703 130.339 2.98755 128.903 2.98755H124.969L127.266 8.18878H134.098Z" fill="#007BA7"/>
</g>
<g id="XMLID_678_">
<path id="XMLID_695_" d="M22.6454 89.1295V71.9516L16.414 84.4415H12.8544L6.63173 71.9516V89.1295H0V60.4358H7.19743L14.6386 75.4306L22.1232 60.4358H29.2771V89.1295H22.6454Z" fill="white"/>
<path id="XMLID_693_" d="M34.4118 92.3217C34.9514 92.513 35.4561 92.6435 35.9261 92.7218C36.3961 92.8001 36.8225 92.8436 37.1968 92.8436C37.98 92.8436 38.5892 92.5739 39.0157 92.0347C39.4509 91.4954 39.8338 90.5213 40.1906 89.1209L32.1055 67.9072H38.7807L43.7154 83.5892L47.9625 67.9072H54.0285L45.9433 92.5565C45.3776 94.3048 44.3681 95.7312 42.9147 96.8184C41.4613 97.9056 39.7294 98.4536 37.7364 98.4536C37.1968 98.4536 36.6485 98.4101 36.1002 98.3144C35.5432 98.2187 34.9862 98.0622 34.4205 97.8534V92.3217H34.4118Z" fill="white"/>
<path id="XMLID_691_" d="M55.4375 74.5436C55.4375 72.8215 55.7595 71.0993 56.4122 69.3946C57.0563 67.6811 58.0049 66.159 59.2407 64.8109C60.4766 63.4627 61.9909 62.3755 63.7663 61.5406C65.5418 60.7056 67.5696 60.2881 69.8324 60.2881C72.5303 60.2881 74.8627 60.8708 76.847 62.0276C78.8313 63.1844 80.3021 64.6978 81.2769 66.5504L76.1856 70.1078C75.8636 69.3511 75.4545 68.7249 74.9498 68.2291C74.4537 67.7333 73.9054 67.3245 73.3136 67.0201C72.7218 66.707 72.1126 66.4982 71.4947 66.3765C70.8767 66.2547 70.2675 66.1938 69.6757 66.1938C68.4051 66.1938 67.2998 66.4461 66.3598 66.9592C65.4199 67.4724 64.6366 68.1334 64.0187 68.9423C63.4008 69.7512 62.9395 70.6644 62.6436 71.6908C62.3477 72.7171 62.1998 73.7521 62.1998 74.8046C62.1998 75.9353 62.3738 77.0312 62.722 78.0749C63.0701 79.1273 63.5749 80.058 64.2363 80.8669C64.8977 81.6757 65.6897 82.3194 66.6209 82.789C67.5522 83.2587 68.5965 83.4936 69.754 83.4936C70.3459 83.4936 70.9638 83.424 71.5904 83.2674C72.2257 83.1196 72.8262 82.8934 73.4093 82.5803C73.9924 82.2672 74.5233 81.8671 75.0107 81.3713C75.4981 80.8755 75.8897 80.258 76.1856 79.5361L81.6076 82.7282C81.1725 83.7806 80.5371 84.7199 79.6842 85.5549C78.8313 86.3899 77.8566 87.0944 76.7513 87.6598C75.646 88.2251 74.4711 88.66 73.2353 88.9557C71.9907 89.2514 70.781 89.3993 69.5974 89.3993C67.5174 89.3993 65.6114 88.9731 63.8795 88.1294C62.1389 87.2771 60.6419 86.1551 59.3887 84.7547C58.1355 83.3544 57.1607 81.7627 56.4732 79.9884C55.7769 78.1793 55.4375 76.3701 55.4375 74.5436Z" fill="white"/>
<path id="XMLID_688_" d="M90.4175 89.5384C89.3644 89.5384 88.3897 89.3731 87.4845 89.0339C86.5794 88.6947 85.8049 88.225 85.1608 87.6162C84.5168 87.0074 84.0033 86.2941 83.6204 85.4766C83.2462 84.659 83.0547 83.7631 83.0547 82.789C83.0547 81.7365 83.281 80.7798 83.7248 79.9187C84.1687 79.0576 84.7953 78.3183 85.6047 77.6921C86.4141 77.0746 87.3714 76.5875 88.4767 76.2396C89.582 75.8917 90.8091 75.7177 92.1581 75.7177C93.0458 75.7177 93.9074 75.796 94.7429 75.9439C95.5784 76.0917 96.3094 76.3179 96.9274 76.6136V75.6394C96.9274 73.1867 95.5088 71.9603 92.6803 71.9603C91.5228 71.9603 90.4175 72.1604 89.3644 72.5431C88.3113 72.9344 87.206 73.5172 86.0485 74.3L84.1513 70.2556C85.5525 69.3423 87.0059 68.6552 88.5202 68.1942C90.0258 67.7332 91.6359 67.5071 93.333 67.5071C96.5444 67.5071 99.0248 68.2638 100.774 69.7685C102.523 71.2819 103.402 73.4824 103.402 76.3961V81.8496C103.402 82.4932 103.507 82.9455 103.707 83.2064C103.907 83.4587 104.264 83.6152 104.778 83.6674V89.1209C104.212 89.2514 103.698 89.347 103.237 89.3818C102.776 89.4253 102.358 89.4427 101.984 89.4427C100.774 89.4427 99.8516 89.2079 99.2337 88.7382C98.6158 88.2685 98.2241 87.5988 98.0588 86.7377L97.9369 85.7636C96.997 86.9726 95.8656 87.9032 94.5601 88.5555C93.2547 89.2079 91.8709 89.5384 90.4175 89.5384ZM92.3147 84.8851C93.0197 84.8851 93.6985 84.7633 94.36 84.5198C95.0214 84.2763 95.5697 83.9545 95.9961 83.5457C96.6141 83.0586 96.9274 82.5454 96.9274 82.0062V79.9883C96.3617 79.7708 95.7438 79.6056 95.091 79.4838C94.4296 79.3621 93.8204 79.3012 93.2547 79.3012C92.0711 79.3012 91.0876 79.5708 90.3217 80.1101C89.5559 80.6493 89.1729 81.3538 89.1729 82.2149C89.1729 82.9977 89.4688 83.6326 90.0606 84.1371C90.6438 84.6416 91.4009 84.8851 92.3147 84.8851Z" fill="white"/>
<path id="XMLID_686_" d="M121.557 73.4475C119.991 73.4736 118.581 73.7346 117.31 74.2129C116.04 74.7 115.126 75.4219 114.56 76.3961V89.1295H108.094V67.9158H114.038V72.2038C114.769 70.7774 115.7 69.6553 116.849 68.8465C117.998 68.0376 119.216 67.6201 120.513 67.594C120.809 67.594 121.026 67.594 121.157 67.594C121.288 67.594 121.427 67.6114 121.557 67.6375V73.4475Z" fill="white"/>
<path id="XMLID_684_" d="M149.493 60.4358V89.1295H142.861V77.3702H131.417V89.1295H124.785V60.4358H131.417V71.5515H142.861V60.4358H149.493Z" fill="white"/>
<path id="XMLID_682_" d="M160.901 89.5383C158.717 89.5383 157.063 88.8598 155.949 87.4943C154.827 86.1375 154.27 84.137 154.27 81.4929V67.9158H160.736V80.0839C160.736 81.3798 160.988 82.3714 161.502 83.0585C162.015 83.7456 162.738 84.0848 163.686 84.0848C164.548 84.0848 165.383 83.8587 166.193 83.3977C167.002 82.9367 167.716 82.1452 168.334 81.0145V67.9158H174.8V81.8582C174.8 82.5018 174.905 82.9541 175.105 83.215C175.305 83.4673 175.662 83.6238 176.175 83.676V89.1295C175.557 89.2599 175.026 89.3556 174.6 89.3904C174.165 89.4339 173.773 89.4513 173.425 89.4513C171.11 89.4513 169.787 88.5467 169.465 86.7463L169.343 85.4503C168.369 86.8507 167.167 87.8857 165.723 88.538C164.287 89.2078 162.677 89.5383 160.901 89.5383Z" fill="white"/>
<path id="XMLID_679_" d="M192.565 89.5384C190.947 89.5384 189.537 89.1992 188.318 88.512C187.109 87.8249 186.151 86.8595 185.446 85.6244V89.1383H179.824V59.627H186.291V71.3863C186.996 70.1773 187.927 69.2205 189.102 68.5334C190.277 67.8463 191.652 67.5071 193.244 67.5071C194.593 67.5071 195.829 67.7941 196.961 68.3768C198.092 68.9596 199.067 69.7424 199.876 70.7426C200.685 71.7429 201.321 72.917 201.773 74.2826C202.235 75.6394 202.461 77.0919 202.461 78.6314C202.461 80.1709 202.208 81.6061 201.712 82.9368C201.216 84.2676 200.52 85.433 199.632 86.4159C198.745 87.3987 197.692 88.1641 196.482 88.7208C195.272 89.26 193.967 89.5384 192.565 89.5384ZM190.747 84.0762C191.504 84.0762 192.191 83.937 192.809 83.65C193.427 83.363 193.958 82.9803 194.411 82.5019C194.854 82.0148 195.203 81.4408 195.464 80.7885C195.716 80.1274 195.847 79.4055 195.847 78.6227C195.847 77.866 195.725 77.1441 195.481 76.457C195.237 75.7699 194.907 75.1698 194.489 74.6566C194.071 74.1434 193.566 73.7433 192.975 73.4476C192.383 73.1519 191.747 73.004 191.077 73.004C190.05 73.004 189.119 73.3519 188.266 74.0564C187.413 74.761 186.761 75.6307 186.308 76.6832V81.1277C186.743 82.0409 187.37 82.7628 188.188 83.2934C188.997 83.8153 189.859 84.0762 190.747 84.0762Z" fill="white"/>
</g>
</g>
</g>
</svg>
